<?xml version="1.0" encoding="UTF-8" standalone="no"?>
<!-- Created with Inkscape (http://www.inkscape.org/) -->

<svg
   width="31.485416mm"
   height="35.71875mm"
   viewBox="0 0 31.485416 35.71875"
   version="1.1"
   id="svg1"
   xml:space="preserve"
   inkscape:export-filename="bitmap.svg"
   inkscape:export-xdpi="96"
   inkscape:export-ydpi="96"
   xmlns:inkscape="http://www.inkscape.org/namespaces/inkscape"
   xmlns:sodipodi="http://sodipodi.sourceforge.net/DTD/sodipodi-0.dtd"
   xmlns="http://www.w3.org/2000/svg"
   xmlns:svg="http://www.w3.org/2000/svg"><sodipodi:namedview
     id="namedview1"
     pagecolor="#ffffff"
     bordercolor="#000000"
     borderopacity="0.25"
     inkscape:showpageshadow="2"
     inkscape:pageopacity="0.0"
     inkscape:pagecheckerboard="0"
     inkscape:deskcolor="#d1d1d1"
     inkscape:document-units="mm" /><defs
     id="defs1" /><g
     inkscape:label="Layer 1"
     inkscape:groupmode="layer"
     id="layer1"
     transform="translate(-90.93306,-131.91934)"><path
       style="fill:#121212;stroke:none;stroke-width:1.0141"
       d="m 104.55939,141.92922 c -2.2224,-2.18505 -5.923346,-4.02583 -8.992662,-1.87833 -0.947649,0.66303 -1.195122,2.45522 -1.540407,3.49135 -0.970684,2.91275 -3.273491,7.09109 -2.97028,10.21581 0.336429,3.46706 4.661604,7.78667 6.419525,10.75348 0.537588,0.90728 1.055865,2.8894 2.291714,3.00866 1.3417,0.12946 3.68412,-0.56546 4.79211,-1.29814 0.86947,-0.57495 1.80097,-1.7047 2.93392,-1.69122 1.04616,0.0124 1.20613,1.11163 1.80552,1.72462 0.71622,0.73247 3.91637,1.43802 4.82745,0.9262 1.03958,-0.58401 1.72504,-2.734 2.32209,-3.74546 2.00324,-3.39368 4.70348,-7.46842 5.7453,-11.29116 0.43051,-1.5797 -0.97426,-3.86083 -1.4776,-5.37675 -1.32463,-3.98942 -1.7079,-5.7609 -5.71286,-7.31336 -1.00597,-0.38996 -2.11504,-0.95668 -3.21348,-0.59244 -1.53408,0.5087 -3.02961,2.06684 -4.28464,3.06674 0.61194,-2.16404 2.81338,-4.85597 2.87791,-6.98956 0.0466,-1.53795 -2.65901,-3.96465 -3.92613,-2.33407 -1.66169,2.1383 -1.89576,6.72185 -1.89748,9.32363 m 3.48128,-7.52744 -0.83416,3.76371 -1.04038,6.18326 c 1.81301,-1.3036 3.76307,-2.74701 5.8914,-3.4926 4.0008,-1.40157 5.99406,3.03205 7.07597,5.91213 1.88838,5.02688 -0.41956,9.42469 -2.72604,13.97953 -1.42017,2.80457 -2.61589,5.10115 -5.95668,4.83907 -0.10149,-1.85574 -2.04923,-3.63635 -4.01685,-2.8093 -2.27315,0.95545 -4.21399,4.65676 -7.149957,2.15505 -2.258152,-1.92415 -3.814034,-5.42793 -5.329351,-7.94853 -0.595714,-0.99092 -1.496349,-2.04478 -1.642904,-3.22605 -0.257757,-2.07763 1.117816,-4.80374 1.818122,-6.72093 0.610542,-1.67144 1.429165,-4.80706 3.227116,-5.51573 3.681794,-1.45116 4.893224,1.92805 8.005804,2.55853 0,-3.33438 0.94828,-6.57074 2.14233,-9.67814 z"
       id="path1" /></g></svg>
